ply
format ascii 1.0
element vertex 35
property float x
property float y
property float z
end_header
-255.0000000000113 -150.0000000000045 1247.1775998388368
-170.00000000000247 -150.00000000000128 1231.8140514634958
-85.0000000000008 -150.0000000000006 1233.1705803038465
-7.389644451905042E-13 -150.00000000000077 1250.000000000006
84.99999999999882 -150.0000000000026 1266.8294196961776
170.0000000000002 -150.00000000000207 1268.18594853653
255.00000000000244 -150.000000000004 1252.8224001612277
-255.000000000009 -75.00000000000192 1247.17759983883
-170.000000000002 -75.00000000000055 1231.814051463494
-85.00000000000404 -75.00000000000145 1233.1705803038626
-2.0463630789890885E-12 -75.00000000000111 1250.000000000016
84.99999999999964 -75.00000000000041 1266.8294196961638
170.00000000000048 -75.00000000000313 1268.1859485365587
255.00000000000188 -75.0000000000016 1252.8224001612202
-255.00000000001032 -2.9309887850104133E-13 1247.177599838834
-170.00000000000736 -2.682298827494378E-13 1231.814051463514
-85.00000000000594 -2.8954616482224083E-13 1233.1705803038726
-1.9895196601282805E-12 -1.474376176702208E-13 1250.0000000000155
84.99999999999892 -1.687538997430238E-13 1266.8294196961758
170.0000000000003 -2.8421709430404007E-13 1268.1859485365428
255.00000000000188 -2.2737367544323206E-13 1252.8224001612207
-255.00000000000955 75.00000000000148 1247.1775998388318
-170.00000000000384 75.00000000000077 1231.814051463501
-85.00000000000662 75.00000000000173 1233.1705803038758
-1.1937117960769683E-12 75.00000000000054 1250.0000000000098
84.99999999999955 75.00000000000037 1266.8294196961654
170.00000000000034 75.0000000000014 1268.1859485365412
255.00000000000267 75.00000000000172 1252.8224001612305
-255.00000000001455 150.00000000000495 1247.1775998388466
-170.00000000000594 150.00000000000256 1231.8140514635086
-85.00000000000148 150.00000000000088 1233.1705803038499
-3.694822225952521E-13 150.0000000000003 1250.0000000000027
84.99999999999942 150.00000000000102 1266.829419696167
170.00000000000026 150.00000000000256 1268.185948536537
255.00000000000253 150.00000000000358 1252.8224001612293
