0
SECTION
2
HEADER
0
ENDSEC
0
SECTION
2
ENTITIES
0
LINE
8
BORDES
10
35.000000
20
96.000000
11
38.000000
21
96.000000
0
LINE
8
BORDES
10
34.000000
20
95.000000
11
39.000000
21
95.000000
0
LINE
8
BORDES
10
45.000000
20
95.000000
11
48.000000
21
95.000000
0
LINE
8
BORDES
10
57.000000
20
95.000000
11
60.000000
21
95.000000
0
LINE
8
BORDES
10
67.000000
20
95.000000
11
71.000000
21
95.000000
0
LINE
8
BORDES
10
80.000000
20
95.000000
11
83.000000
21
95.000000
0
LINE
8
BORDES
10
91.000000
20
95.000000
11
94.000000
21
95.000000
0
LINE
8
BORDES
10
98.000000
20
95.000000
11
101.000000
21
95.000000
0
LINE
8
BORDES
10
103.000000
20
95.000000
11
106.000000
21
95.000000
0
LINE
8
BORDES
10
114.000000
20
95.000000
11
117.000000
21
95.000000
0
LINE
8
BORDES
10
45.000000
20
94.000000
11
48.000000
21
94.000000
0
LINE
8
BORDES
10
57.000000
20
94.000000
11
60.000000
21
94.000000
0
LINE
8
BORDES
10
91.000000
20
94.000000
11
94.000000
21
94.000000
0
LINE
8
BORDES
10
97.000000
20
94.000000
11
100.000000
21
94.000000
0
LINE
8
BORDES
10
103.000000
20
94.000000
11
106.000000
21
94.000000
0
LINE
8
BORDES
10
34.000000
20
93.000000
11
37.000000
21
93.000000
0
LINE
8
BORDES
10
45.000000
20
93.000000
11
48.000000
21
93.000000
0
LINE
8
BORDES
10
57.000000
20
93.000000
11
60.000000
21
93.000000
0
LINE
8
BORDES
10
65.000000
20
93.000000
11
71.000000
21
93.000000
0
LINE
8
BORDES
10
80.000000
20
93.000000
11
83.000000
21
93.000000
0
LINE
8
BORDES
10
91.000000
20
93.000000
11
94.000000
21
93.000000
0
LINE
8
BORDES
10
96.000000
20
93.000000
11
99.000000
21
93.000000
0
LINE
8
BORDES
10
103.000000
20
93.000000
11
106.000000
21
93.000000
0
LINE
8
BORDES
10
114.000000
20
93.000000
11
117.000000
21
93.000000
0
LINE
8
BORDES
10
34.000000
20
92.000000
11
124.000000
21
92.000000
0
LINE
8
BORDES
10
37.000000
20
91.000000
11
45.000000
21
91.000000
0
LINE
8
BORDES
10
51.000000
20
91.000000
11
57.000000
21
91.000000
0
LINE
8
BORDES
10
60.000000
20
91.000000
11
64.000000
21
91.000000
0
LINE
8
BORDES
10
71.000000
20
91.000000
11
80.000000
21
91.000000
0
LINE
8
BORDES
10
83.000000
20
91.000000
11
91.000000
21
91.000000
0
LINE
8
BORDES
10
98.000000
20
91.000000
11
103.000000
21
91.000000
0
LINE
8
BORDES
10
106.000000
20
91.000000
11
111.000000
21
91.000000
0
LINE
8
BORDES
10
117.000000
20
91.000000
11
125.000000
21
91.000000
0
LINE
8
BORDES
10
37.000000
20
90.000000
11
45.000000
21
90.000000
0
LINE
8
BORDES
10
48.000000
20
90.000000
11
57.000000
21
90.000000
0
LINE
8
BORDES
10
64.000000
20
90.000000
11
68.000000
21
90.000000
0
LINE
8
BORDES
10
71.000000
20
90.000000
11
77.000000
21
90.000000
0
LINE
8
BORDES
10
83.000000
20
90.000000
11
91.000000
21
90.000000
0
LINE
8
BORDES
10
95.000000
20
90.000000
11
103.000000
21
90.000000
0
LINE
8
BORDES
10
110.000000
20
90.000000
11
114.000000
21
90.000000
0
LINE
8
BORDES
10
117.000000
20
90.000000
11
125.000000
21
90.000000
0
LINE
8
BORDES
10
34.000000
20
89.000000
11
92.000000
21
89.000000
0
LINE
8
BORDES
10
94.000000
20
89.000000
11
123.000000
21
89.000000
0
LINE
8
BORDES
10
34.000000
20
88.000000
11
37.000000
21
88.000000
0
LINE
8
BORDES
10
45.000000
20
88.000000
11
48.000000
21
88.000000
0
LINE
8
BORDES
10
57.000000
20
88.000000
11
63.000000
21
88.000000
0
LINE
8
BORDES
10
68.000000
20
88.000000
11
71.000000
21
88.000000
0
LINE
8
BORDES
10
80.000000
20
88.000000
11
83.000000
21
88.000000
0
LINE
8
BORDES
10
91.000000
20
88.000000
11
94.000000
21
88.000000
0
LINE
8
BORDES
10
103.000000
20
88.000000
11
107.000000
21
88.000000
0
LINE
8
BORDES
10
114.000000
20
88.000000
11
117.000000
21
88.000000
0
LINE
8
BORDES
10
122.000000
20
88.000000
11
125.000000
21
88.000000
0
LINE
8
BORDES
10
34.000000
20
87.000000
11
37.000000
21
87.000000
0
LINE
8
BORDES
10
68.000000
20
87.000000
11
71.000000
21
87.000000
0
LINE
8
BORDES
10
80.000000
20
87.000000
11
83.000000
21
87.000000
0
LINE
8
BORDES
10
103.000000
20
87.000000
11
106.000000
21
87.000000
0
LINE
8
BORDES
10
114.000000
20
87.000000
11
117.000000
21
87.000000
0
LINE
8
BORDES
10
121.000000
20
87.000000
11
124.000000
21
87.000000
0
LINE
8
BORDES
10
34.000000
20
86.000000
11
37.000000
21
86.000000
0
LINE
8
BORDES
10
45.000000
20
86.000000
11
48.000000
21
86.000000
0
LINE
8
BORDES
10
68.000000
20
86.000000
11
71.000000
21
86.000000
0
LINE
8
BORDES
10
80.000000
20
86.000000
11
83.000000
21
86.000000
0
LINE
8
BORDES
10
114.000000
20
86.000000
11
117.000000
21
86.000000
0
LINE
8
BORDES
10
120.000000
20
86.000000
11
123.000000
21
86.000000
0
LINE
8
BORDES
10
34.000000
20
85.000000
11
37.000000
21
85.000000
0
LINE
8
BORDES
10
44.000000
20
85.000000
11
48.000000
21
85.000000
0
LINE
8
BORDES
10
57.000000
20
85.000000
11
60.000000
21
85.000000
0
LINE
8
BORDES
10
68.000000
20
85.000000
11
71.000000
21
85.000000
0
LINE
8
BORDES
10
80.000000
20
85.000000
11
83.000000
21
85.000000
0
LINE
8
BORDES
10
88.000000
20
85.000000
11
94.000000
21
85.000000
0
LINE
8
BORDES
10
103.000000
20
85.000000
11
106.000000
21
85.000000
0
LINE
8
BORDES
10
114.000000
20
85.000000
11
117.000000
21
85.000000
0
LINE
8
BORDES
10
119.000000
20
85.000000
11
122.000000
21
85.000000
0
LINE
8
BORDES
10
34.000000
20
84.000000
11
37.000000
21
84.000000
0
LINE
8
BORDES
10
45.000000
20
84.000000
11
48.000000
21
84.000000
0
LINE
8
BORDES
10
68.000000
20
84.000000
11
72.000000
21
84.000000
0
LINE
8
BORDES
10
80.000000
20
84.000000
11
83.000000
21
84.000000
0
LINE
8
BORDES
10
87.000000
20
84.000000
11
94.000000
21
84.000000
0
LINE
8
BORDES
10
103.000000
20
84.000000
11
106.000000
21
84.000000
0
LINE
8
BORDES
10
114.000000
20
84.000000
11
121.000000
21
84.000000
0
LINE
8
BORDES
10
34.000000
20
83.000000
11
56.000000
21
83.000000
0
LINE
8
BORDES
10
59.000000
20
83.000000
11
103.000000
21
83.000000
0
LINE
8
BORDES
10
105.000000
20
83.000000
11
124.000000
21
83.000000
0
LINE
8
BORDES
10
37.000000
20
82.000000
11
40.000000
21
82.000000
0
LINE
8
BORDES
10
42.000000
20
82.000000
11
45.000000
21
82.000000
0
LINE
8
BORDES
10
48.000000
20
82.000000
11
55.000000
21
82.000000
0
LINE
8
BORDES
10
60.000000
20
82.000000
11
68.000000
21
82.000000
0
LINE
8
BORDES
10
73.000000
20
82.000000
11
80.000000
21
82.000000
0
LINE
8
BORDES
10
83.000000
20
82.000000
11
86.000000
21
82.000000
0
LINE
8
BORDES
10
94.000000
20
82.000000
11
102.000000
21
82.000000
0
LINE
8
BORDES
10
106.000000
20
82.000000
11
114.000000
21
82.000000
0
LINE
8
BORDES
10
120.000000
20
82.000000
11
125.000000
21
82.000000
0
LINE
8
BORDES
10
39.000000
20
81.000000
11
45.000000
21
81.000000
0
LINE
8
BORDES
10
48.000000
20
81.000000
11
52.000000
21
81.000000
0
LINE
8
BORDES
10
60.000000
20
81.000000
11
68.000000
21
81.000000
0
LINE
8
BORDES
10
71.000000
20
81.000000
11
80.000000
21
81.000000
0
LINE
8
BORDES
10
86.000000
20
81.000000
11
91.000000
21
81.000000
0
LINE
8
BORDES
10
94.000000
20
81.000000
11
99.000000
21
81.000000
0
LINE
8
BORDES
10
106.000000
20
81.000000
11
114.000000
21
81.000000
0
LINE
8
BORDES
10
117.000000
20
81.000000
11
125.000000
21
81.000000
0
LINE
8
BORDES
10
38.000000
20
80.000000
11
82.000000
21
80.000000
0
LINE
8
BORDES
10
84.000000
20
80.000000
11
124.000000
21
80.000000
0
LINE
8
BORDES
10
45.000000
20
79.000000
11
48.000000
21
79.000000
0
LINE
8
BORDES
10
51.000000
20
79.000000
11
54.000000
21
79.000000
0
LINE
8
BORDES
10
57.000000
20
79.000000
11
60.000000
21
79.000000
0
LINE
8
BORDES
10
91.000000
20
79.000000
11
94.000000
21
79.000000
0
LINE
8
BORDES
10
103.000000
20
79.000000
11
106.000000
21
79.000000
0
LINE
8
BORDES
10
34.000000
20
78.000000
11
37.000000
21
78.000000
0
LINE
8
BORDES
10
45.000000
20
78.000000
11
48.000000
21
78.000000
0
LINE
8
BORDES
10
50.000000
20
78.000000
11
53.000000
21
78.000000
0
LINE
8
BORDES
10
57.000000
20
78.000000
11
60.000000
21
78.000000
0
LINE
8
BORDES
10
68.000000
20
78.000000
11
71.000000
21
78.000000
0
LINE
8
BORDES
10
91.000000
20
78.000000
11
94.000000
21
78.000000
0
LINE
8
BORDES
10
103.000000
20
78.000000
11
106.000000
21
78.000000
0
LINE
8
BORDES
10
34.000000
20
77.000000
11
37.000000
21
77.000000
0
LINE
8
BORDES
10
45.000000
20
77.000000
11
52.000000
21
77.000000
0
LINE
8
BORDES
10
57.000000
20
77.000000
11
60.000000
21
77.000000
0
LINE
8
BORDES
10
67.000000
20
77.000000
11
71.000000
21
77.000000
0
LINE
8
BORDES
10
80.000000
20
77.000000
11
83.000000
21
77.000000
0
LINE
8
BORDES
10
91.000000
20
77.000000
11
94.000000
21
77.000000
0
LINE
8
BORDES
10
103.000000
20
77.000000
11
106.000000
21
77.000000
0
LINE
8
BORDES
10
111.000000
20
77.000000
11
117.000000
21
77.000000
0
LINE
8
BORDES
10
34.000000
20
76.000000
11
37.000000
21
76.000000
0
LINE
8
BORDES
10
45.000000
20
76.000000
11
51.000000
21
76.000000
0
LINE
8
BORDES
10
57.000000
20
76.000000
11
60.000000
21
76.000000
0
LINE
8
BORDES
10
68.000000
20
76.000000
11
71.000000
21
76.000000
0
LINE
8
BORDES
10
91.000000
20
76.000000
11
95.000000
21
76.000000
0
LINE
8
BORDES
10
103.000000
20
76.000000
11
106.000000
21
76.000000
0
LINE
8
BORDES
10
110.000000
20
76.000000
11
117.000000
21
76.000000
0
LINE
8
BORDES
10
34.000000
20
75.000000
11
37.000000
21
75.000000
0
LINE
8
BORDES
10
57.000000
20
75.000000
11
60.000000
21
75.000000
0
LINE
8
BORDES
10
68.000000
20
75.000000
11
71.000000
21
75.000000
0
LINE
8
BORDES
10
91.000000
20
75.000000
11
94.000000
21
75.000000
0
LINE
8
BORDES
10
103.000000
20
75.000000
11
106.000000
21
75.000000
0
LINE
8
BORDES
10
109.000000
20
75.000000
11
112.000000
21
75.000000
0
LINE
8
BORDES
10
114.000000
20
75.000000
11
117.000000
21
75.000000
0
LINE
8
BORDES
10
34.000000
20
74.000000
11
37.000000
21
74.000000
0
LINE
8
BORDES
10
57.000000
20
74.000000
11
60.000000
21
74.000000
0
LINE
8
BORDES
10
68.000000
20
74.000000
11
71.000000
21
74.000000
0
LINE
8
BORDES
10
77.000000
20
74.000000
11
83.000000
21
74.000000
0
LINE
8
BORDES
10
103.000000
20
74.000000
11
106.000000
21
74.000000
0
LINE
8
BORDES
10
108.000000
20
74.000000
11
111.000000
21
74.000000
0
LINE
8
BORDES
10
114.000000
20
74.000000
11
117.000000
21
74.000000
0
LINE
8
BORDES
10
34.000000
20
73.000000
11
125.000000
21
73.000000
0
LINE
8
BORDES
10
37.000000
20
72.000000
11
45.000000
21
72.000000
0
LINE
8
BORDES
10
48.000000
20
72.000000
11
57.000000
21
72.000000
0
LINE
8
BORDES
10
63.000000
20
72.000000
11
68.000000
21
72.000000
0
LINE
8
BORDES
10
71.000000
20
72.000000
11
76.000000
21
72.000000
0
LINE
8
BORDES
10
83.000000
20
72.000000
11
91.000000
21
72.000000
0
LINE
8
BORDES
10
94.000000
20
72.000000
11
103.000000
21
72.000000
0
LINE
8
BORDES
10
110.000000
20
72.000000
11
114.000000
21
72.000000
0
LINE
8
BORDES
10
117.000000
20
72.000000
11
125.000000
21
72.000000
0
LINE
8
BORDES
10
37.000000
20
71.000000
11
42.000000
21
71.000000
0
LINE
8
BORDES
10
48.000000
20
71.000000
11
57.000000
21
71.000000
0
LINE
8
BORDES
10
60.000000
20
71.000000
11
68.000000
21
71.000000
0
LINE
8
BORDES
10
76.000000
20
71.000000
11
80.000000
21
71.000000
0
LINE
8
BORDES
10
83.000000
20
71.000000
11
89.000000
21
71.000000
0
LINE
8
BORDES
10
94.000000
20
71.000000
11
103.000000
21
71.000000
0
LINE
8
BORDES
10
107.000000
20
71.000000
11
114.000000
21
71.000000
0
LINE
8
BORDES
10
117.000000
20
71.000000
11
120.000000
21
71.000000
0
LINE
8
BORDES
10
122.000000
20
71.000000
11
125.000000
21
71.000000
0
LINE
8
BORDES
10
34.000000
20
70.000000
11
104.000000
21
70.000000
0
LINE
8
BORDES
10
106.000000
20
70.000000
11
124.000000
21
70.000000
0
LINE
8
BORDES
10
34.000000
20
69.000000
11
37.000000
21
69.000000
0
LINE
8
BORDES
10
41.000000
20
69.000000
11
48.000000
21
69.000000
0
LINE
8
BORDES
10
57.000000
20
69.000000
11
60.000000
21
69.000000
0
LINE
8
BORDES
10
68.000000
20
69.000000
11
75.000000
21
69.000000
0
LINE
8
BORDES
10
80.000000
20
69.000000
11
83.000000
21
69.000000
0
LINE
8
BORDES
10
90.000000
20
69.000000
11
94.000000
21
69.000000
0
LINE
8
BORDES
10
103.000000
20
69.000000
11
106.000000
21
69.000000
0
LINE
8
BORDES
10
114.000000
20
69.000000
11
117.000000
21
69.000000
0
LINE
8
BORDES
10
34.000000
20
68.000000
11
37.000000
21
68.000000
0
LINE
8
BORDES
10
40.000000
20
68.000000
11
43.000000
21
68.000000
0
LINE
8
BORDES
10
45.000000
20
68.000000
11
48.000000
21
68.000000
0
LINE
8
BORDES
10
68.000000
20
68.000000
11
74.000000
21
68.000000
0
LINE
8
BORDES
10
80.000000
20
68.000000
11
83.000000
21
68.000000
0
LINE
8
BORDES
10
91.000000
20
68.000000
11
94.000000
21
68.000000
0
LINE
8
BORDES
10
114.000000
20
68.000000
11
118.000000
21
68.000000
0
LINE
8
BORDES
10
34.000000
20
67.000000
11
37.000000
21
67.000000
0
LINE
8
BORDES
10
39.000000
20
67.000000
11
42.000000
21
67.000000
0
LINE
8
BORDES
10
45.000000
20
67.000000
11
48.000000
21
67.000000
0
LINE
8
BORDES
10
57.000000
20
67.000000
11
60.000000
21
67.000000
0
LINE
8
BORDES
10
80.000000
20
67.000000
11
83.000000
21
67.000000
0
LINE
8
BORDES
10
91.000000
20
67.000000
11
94.000000
21
67.000000
0
LINE
8
BORDES
10
114.000000
20
67.000000
11
117.000000
21
67.000000
0
LINE
8
BORDES
10
34.000000
20
66.000000
11
41.000000
21
66.000000
0
LINE
8
BORDES
10
45.000000
20
66.000000
11
48.000000
21
66.000000
0
LINE
8
BORDES
10
56.000000
20
66.000000
11
60.000000
21
66.000000
0
LINE
8
BORDES
10
80.000000
20
66.000000
11
83.000000
21
66.000000
0
LINE
8
BORDES
10
91.000000
20
66.000000
11
94.000000
21
66.000000
0
LINE
8
BORDES
10
100.000000
20
66.000000
11
106.000000
21
66.000000
0
LINE
8
BORDES
10
34.000000
20
65.000000
11
40.000000
21
65.000000
0
LINE
8
BORDES
10
45.000000
20
65.000000
11
48.000000
21
65.000000
0
LINE
8
BORDES
10
57.000000
20
65.000000
11
60.000000
21
65.000000
0
LINE
8
BORDES
10
68.000000
20
65.000000
11
71.000000
21
65.000000
0
LINE
8
BORDES
10
80.000000
20
65.000000
11
84.000000
21
65.000000
0
LINE
8
BORDES
10
91.000000
20
65.000000
11
94.000000
21
65.000000
0
LINE
8
BORDES
10
99.000000
20
65.000000
11
106.000000
21
65.000000
0
LINE
8
BORDES
10
114.000000
20
65.000000
11
117.000000
21
65.000000
0
LINE
8
BORDES
10
37.000000
20
64.000000
11
68.000000
21
64.000000
0
LINE
8
BORDES
10
70.000000
20
64.000000
11
124.000000
21
64.000000
0
LINE
8
BORDES
10
39.000000
20
63.000000
11
45.000000
21
63.000000
0
LINE
8
BORDES
10
48.000000
20
63.000000
11
52.000000
21
63.000000
0
LINE
8
BORDES
10
54.000000
20
63.000000
11
57.000000
21
63.000000
0
LINE
8
BORDES
10
60.000000
20
63.000000
11
67.000000
21
63.000000
0
LINE
8
BORDES
10
71.000000
20
63.000000
11
80.000000
21
63.000000
0
LINE
8
BORDES
10
85.000000
20
63.000000
11
91.000000
21
63.000000
0
LINE
8
BORDES
10
94.000000
20
63.000000
11
98.000000
21
63.000000
0
LINE
8
BORDES
10
106.000000
20
63.000000
11
114.000000
21
63.000000
0
LINE
8
BORDES
10
117.000000
20
63.000000
11
125.000000
21
63.000000
0
LINE
8
BORDES
10
37.000000
20
62.000000
11
45.000000
21
62.000000
0
LINE
8
BORDES
10
51.000000
20
62.000000
11
57.000000
21
62.000000
0
LINE
8
BORDES
10
60.000000
20
62.000000
11
64.000000
21
62.000000
0
LINE
8
BORDES
10
71.000000
20
62.000000
11
80.000000
21
62.000000
0
LINE
8
BORDES
10
83.000000
20
62.000000
11
91.000000
21
62.000000
0
LINE
8
BORDES
10
98.000000
20
62.000000
11
103.000000
21
62.000000
0
LINE
8
BORDES
10
106.000000
20
62.000000
11
111.000000
21
62.000000
0
LINE
8
BORDES
10
117.000000
20
62.000000
11
125.000000
21
62.000000
0
LINE
8
BORDES
10
34.000000
20
61.000000
11
124.000000
21
61.000000
0
LINE
8
BORDES
10
34.000000
20
60.000000
11
37.000000
21
60.000000
0
LINE
8
BORDES
10
45.000000
20
60.000000
11
48.000000
21
60.000000
0
LINE
8
BORDES
10
57.000000
20
60.000000
11
60.000000
21
60.000000
0
LINE
8
BORDES
10
63.000000
20
60.000000
11
66.000000
21
60.000000
0
LINE
8
BORDES
10
68.000000
20
60.000000
11
71.000000
21
60.000000
0
LINE
8
BORDES
10
91.000000
20
60.000000
11
97.000000
21
60.000000
0
LINE
8
BORDES
10
103.000000
20
60.000000
11
106.000000
21
60.000000
0
LINE
8
BORDES
10
114.000000
20
60.000000
11
117.000000
21
60.000000
0
LINE
8
BORDES
10
34.000000
20
59.000000
11
37.000000
21
59.000000
0
LINE
8
BORDES
10
57.000000
20
59.000000
11
60.000000
21
59.000000
0
LINE
8
BORDES
10
62.000000
20
59.000000
11
65.000000
21
59.000000
0
LINE
8
BORDES
10
68.000000
20
59.000000
11
71.000000
21
59.000000
0
LINE
8
BORDES
10
80.000000
20
59.000000
11
83.000000
21
59.000000
0
LINE
8
BORDES
10
103.000000
20
59.000000
11
106.000000
21
59.000000
0
LINE
8
BORDES
10
114.000000
20
59.000000
11
117.000000
21
59.000000
0
LINE
8
BORDES
10
34.000000
20
58.000000
11
37.000000
21
58.000000
0
LINE
8
BORDES
10
45.000000
20
58.000000
11
48.000000
21
58.000000
0
LINE
8
BORDES
10
57.000000
20
58.000000
11
64.000000
21
58.000000
0
LINE
8
BORDES
10
68.000000
20
58.000000
11
71.000000
21
58.000000
0
LINE
8
BORDES
10
79.000000
20
58.000000
11
83.000000
21
58.000000
0
LINE
8
BORDES
10
103.000000
20
58.000000
11
106.000000
21
58.000000
0
LINE
8
BORDES
10
114.000000
20
58.000000
11
117.000000
21
58.000000
0
LINE
8
BORDES
10
34.000000
20
57.000000
11
37.000000
21
57.000000
0
LINE
8
BORDES
10
45.000000
20
57.000000
11
48.000000
21
57.000000
0
LINE
8
BORDES
10
57.000000
20
57.000000
11
63.000000
21
57.000000
0
LINE
8
BORDES
10
68.000000
20
57.000000
11
71.000000
21
57.000000
0
LINE
8
BORDES
10
80.000000
20
57.000000
11
83.000000
21
57.000000
0
LINE
8
BORDES
10
91.000000
20
57.000000
11
94.000000
21
57.000000
0
LINE
8
BORDES
10
103.000000
20
57.000000
11
107.000000
21
57.000000
0
LINE
8
BORDES
10
114.000000
20
57.000000
11
117.000000
21
57.000000
0
LINE
8
BORDES
10
122.000000
20
57.000000
11
125.000000
21
57.000000
0
LINE
8
BORDES
10
34.000000
20
56.000000
11
37.000000
21
56.000000
0
LINE
8
BORDES
10
68.000000
20
56.000000
11
71.000000
21
56.000000
0
LINE
8
BORDES
10
80.000000
20
56.000000
11
83.000000
21
56.000000
0
LINE
8
BORDES
10
103.000000
20
56.000000
11
106.000000
21
56.000000
0
LINE
8
BORDES
10
114.000000
20
56.000000
11
117.000000
21
56.000000
0
LINE
8
BORDES
10
121.000000
20
56.000000
11
124.000000
21
56.000000
0
LINE
8
BORDES
10
34.000000
20
55.000000
11
37.000000
21
55.000000
0
LINE
8
BORDES
10
45.000000
20
55.000000
11
48.000000
21
55.000000
0
LINE
8
BORDES
10
68.000000
20
55.000000
11
71.000000
21
55.000000
0
LINE
8
BORDES
10
80.000000
20
55.000000
11
83.000000
21
55.000000
0
LINE
8
BORDES
10
114.000000
20
55.000000
11
117.000000
21
55.000000
0
LINE
8
BORDES
10
120.000000
20
55.000000
11
123.000000
21
55.000000
0
LINE
8
BORDES
10
34.000000
20
54.000000
11
90.000000
21
54.000000
0
LINE
8
BORDES
10
92.000000
20
54.000000
11
124.000000
21
54.000000
0
LINE
8
BORDES
10
37.000000
20
53.000000
11
42.000000
21
53.000000
0
LINE
8
BORDES
10
48.000000
20
53.000000
11
57.000000
21
53.000000
0
LINE
8
BORDES
10
60.000000
20
53.000000
11
68.000000
21
53.000000
0
LINE
8
BORDES
10
75.000000
20
53.000000
11
80.000000
21
53.000000
0
LINE
8
BORDES
10
83.000000
20
53.000000
11
88.000000
21
53.000000
0
LINE
8
BORDES
10
94.000000
20
53.000000
11
103.000000
21
53.000000
0
LINE
8
BORDES
10
106.000000
20
53.000000
11
114.000000
21
53.000000
0
LINE
8
BORDES
10
122.000000
20
53.000000
11
125.000000
21
53.000000
0
LINE
8
BORDES
10
41.000000
20
52.000000
11
45.000000
21
52.000000
0
LINE
8
BORDES
10
48.000000
20
52.000000
11
54.000000
21
52.000000
0
LINE
8
BORDES
10
60.000000
20
52.000000
11
68.000000
21
52.000000
0
LINE
8
BORDES
10
72.000000
20
52.000000
11
80.000000
21
52.000000
0
LINE
8
BORDES
10
88.000000
20
52.000000
11
91.000000
21
52.000000
0
LINE
8
BORDES
10
94.000000
20
52.000000
11
101.000000
21
52.000000
0
LINE
8
BORDES
10
106.000000
20
52.000000
11
114.000000
21
52.000000
0
LINE
8
BORDES
10
119.000000
20
52.000000
11
125.000000
21
52.000000
0
LINE
8
BORDES
10
34.000000
20
51.000000
11
69.000000
21
51.000000
0
LINE
8
BORDES
10
71.000000
20
51.000000
11
115.000000
21
51.000000
0
LINE
8
BORDES
10
118.000000
20
51.000000
11
124.000000
21
51.000000
0
LINE
8
BORDES
10
34.000000
20
50.000000
11
38.000000
21
50.000000
0
LINE
8
BORDES
10
45.000000
20
50.000000
11
48.000000
21
50.000000
0
LINE
8
BORDES
10
53.000000
20
50.000000
11
60.000000
21
50.000000
0
LINE
8
BORDES
10
68.000000
20
50.000000
11
71.000000
21
50.000000
0
LINE
8
BORDES
10
80.000000
20
50.000000
11
87.000000
21
50.000000
0
LINE
8
BORDES
10
91.000000
20
50.000000
11
94.000000
21
50.000000
0
LINE
8
BORDES
10
102.000000
20
50.000000
11
106.000000
21
50.000000
0
LINE
8
BORDES
10
34.000000
20
49.000000
11
37.000000
21
49.000000
0
LINE
8
BORDES
10
45.000000
20
49.000000
11
48.000000
21
49.000000
0
LINE
8
BORDES
10
52.000000
20
49.000000
11
55.000000
21
49.000000
0
LINE
8
BORDES
10
57.000000
20
49.000000
11
60.000000
21
49.000000
0
LINE
8
BORDES
10
68.000000
20
49.000000
11
71.000000
21
49.000000
0
LINE
8
BORDES
10
80.000000
20
49.000000
11
86.000000
21
49.000000
0
LINE
8
BORDES
10
91.000000
20
49.000000
11
94.000000
21
49.000000
0
LINE
8
BORDES
10
103.000000
20
49.000000
11
106.000000
21
49.000000
0
LINE
8
BORDES
10
114.000000
20
49.000000
11
117.000000
21
49.000000
0
LINE
8
BORDES
10
45.000000
20
48.000000
11
48.000000
21
48.000000
0
LINE
8
BORDES
10
51.000000
20
48.000000
11
54.000000
21
48.000000
0
LINE
8
BORDES
10
57.000000
20
48.000000
11
60.000000
21
48.000000
0
LINE
8
BORDES
10
91.000000
20
48.000000
11
94.000000
21
48.000000
0
LINE
8
BORDES
10
103.000000
20
48.000000
11
106.000000
21
48.000000
0
LINE
8
BORDES
10
34.000000
20
47.000000
11
37.000000
21
47.000000
0
LINE
8
BORDES
10
45.000000
20
47.000000
11
48.000000
21
47.000000
0
LINE
8
BORDES
10
50.000000
20
47.000000
11
53.000000
21
47.000000
0
LINE
8
BORDES
10
57.000000
20
47.000000
11
60.000000
21
47.000000
0
LINE
8
BORDES
10
68.000000
20
47.000000
11
71.000000
21
47.000000
0
LINE
8
BORDES
10
91.000000
20
47.000000
11
94.000000
21
47.000000
0
LINE
8
BORDES
10
103.000000
20
47.000000
11
106.000000
21
47.000000
0
LINE
8
BORDES
10
34.000000
20
46.000000
11
37.000000
21
46.000000
0
LINE
8
BORDES
10
45.000000
20
46.000000
11
52.000000
21
46.000000
0
LINE
8
BORDES
10
57.000000
20
46.000000
11
60.000000
21
46.000000
0
LINE
8
BORDES
10
67.000000
20
46.000000
11
71.000000
21
46.000000
0
LINE
8
BORDES
10
80.000000
20
46.000000
11
83.000000
21
46.000000
0
LINE
8
BORDES
10
91.000000
20
46.000000
11
94.000000
21
46.000000
0
LINE
8
BORDES
10
103.000000
20
46.000000
11
106.000000
21
46.000000
0
LINE
8
BORDES
10
111.000000
20
46.000000
11
117.000000
21
46.000000
0
LINE
8
BORDES
10
34.000000
20
45.000000
11
80.000000
21
45.000000
0
LINE
8
BORDES
10
82.000000
20
45.000000
11
124.000000
21
45.000000
0
LINE
8
BORDES
10
37.000000
20
44.000000
11
45.000000
21
44.000000
0
LINE
8
BORDES
10
51.000000
20
44.000000
11
57.000000
21
44.000000
0
LINE
8
BORDES
10
60.000000
20
44.000000
11
64.000000
21
44.000000
0
LINE
8
BORDES
10
71.000000
20
44.000000
11
79.000000
21
44.000000
0
LINE
8
BORDES
10
83.000000
20
44.000000
11
91.000000
21
44.000000
0
LINE
8
BORDES
10
97.000000
20
44.000000
11
103.000000
21
44.000000
0
LINE
8
BORDES
10
106.000000
20
44.000000
11
110.000000
21
44.000000
0
LINE
8
BORDES
10
117.000000
20
44.000000
11
125.000000
21
44.000000
0
LINE
8
BORDES
10
37.000000
20
43.000000
11
45.000000
21
43.000000
0
LINE
8
BORDES
10
48.000000
20
43.000000
11
57.000000
21
43.000000
0
LINE
8
BORDES
10
63.000000
20
43.000000
11
68.000000
21
43.000000
0
LINE
8
BORDES
10
71.000000
20
43.000000
11
76.000000
21
43.000000
0
LINE
8
BORDES
10
83.000000
20
43.000000
11
91.000000
21
43.000000
0
LINE
8
BORDES
10
94.000000
20
43.000000
11
103.000000
21
43.000000
0
LINE
8
BORDES
10
110.000000
20
43.000000
11
114.000000
21
43.000000
0
LINE
8
BORDES
10
117.000000
20
43.000000
11
125.000000
21
43.000000
0
LINE
8
BORDES
10
34.000000
20
42.000000
11
125.000000
21
42.000000
0
LINE
8
BORDES
10
34.000000
20
41.000000
11
37.000000
21
41.000000
0
LINE
8
BORDES
10
57.000000
20
41.000000
11
60.000000
21
41.000000
0
LINE
8
BORDES
10
68.000000
20
41.000000
11
71.000000
21
41.000000
0
LINE
8
BORDES
10
75.000000
20
41.000000
11
78.000000
21
41.000000
0
LINE
8
BORDES
10
80.000000
20
41.000000
11
83.000000
21
41.000000
0
LINE
8
BORDES
10
91.000000
20
41.000000
11
94.000000
21
41.000000
0
LINE
8
BORDES
10
103.000000
20
41.000000
11
109.000000
21
41.000000
0
LINE
8
BORDES
10
114.000000
20
41.000000
11
117.000000
21
41.000000
0
LINE
8
BORDES
10
34.000000
20
40.000000
11
37.000000
21
40.000000
0
LINE
8
BORDES
10
68.000000
20
40.000000
11
71.000000
21
40.000000
0
LINE
8
BORDES
10
74.000000
20
40.000000
11
77.000000
21
40.000000
0
LINE
8
BORDES
10
80.000000
20
40.000000
11
83.000000
21
40.000000
0
LINE
8
BORDES
10
114.000000
20
40.000000
11
117.000000
21
40.000000
0
LINE
8
BORDES
10
34.000000
20
39.000000
11
37.000000
21
39.000000
0
LINE
8
BORDES
10
42.000000
20
39.000000
11
48.000000
21
39.000000
0
LINE
8
BORDES
10
57.000000
20
39.000000
11
60.000000
21
39.000000
0
LINE
8
BORDES
10
68.000000
20
39.000000
11
71.000000
21
39.000000
0
LINE
8
BORDES
10
73.000000
20
39.000000
11
76.000000
21
39.000000
0
LINE
8
BORDES
10
80.000000
20
39.000000
11
83.000000
21
39.000000
0
LINE
8
BORDES
10
91.000000
20
39.000000
11
94.000000
21
39.000000
0
LINE
8
BORDES
10
114.000000
20
39.000000
11
117.000000
21
39.000000
0
LINE
8
BORDES
10
34.000000
20
38.000000
11
37.000000
21
38.000000
0
LINE
8
BORDES
10
41.000000
20
38.000000
11
48.000000
21
38.000000
0
LINE
8
BORDES
10
57.000000
20
38.000000
11
60.000000
21
38.000000
0
LINE
8
BORDES
10
68.000000
20
38.000000
11
75.000000
21
38.000000
0
LINE
8
BORDES
10
80.000000
20
38.000000
11
83.000000
21
38.000000
0
LINE
8
BORDES
10
90.000000
20
38.000000
11
94.000000
21
38.000000
0
LINE
8
BORDES
10
103.000000
20
38.000000
11
106.000000
21
38.000000
0
LINE
8
BORDES
10
114.000000
20
38.000000
11
117.000000
21
38.000000
0
LINE
8
BORDES
10
34.000000
20
37.000000
11
37.000000
21
37.000000
0
LINE
8
BORDES
10
40.000000
20
37.000000
11
43.000000
21
37.000000
0
LINE
8
BORDES
10
45.000000
20
37.000000
11
48.000000
21
37.000000
0
LINE
8
BORDES
10
68.000000
20
37.000000
11
74.000000
21
37.000000
0
LINE
8
BORDES
10
80.000000
20
37.000000
11
83.000000
21
37.000000
0
LINE
8
BORDES
10
91.000000
20
37.000000
11
94.000000
21
37.000000
0
LINE
8
BORDES
10
114.000000
20
37.000000
11
118.000000
21
37.000000
0
LINE
8
BORDES
10
34.000000
20
36.000000
11
37.000000
21
36.000000
0
LINE
8
BORDES
10
39.000000
20
36.000000
11
42.000000
21
36.000000
0
LINE
8
BORDES
10
45.000000
20
36.000000
11
48.000000
21
36.000000
0
LINE
8
BORDES
10
57.000000
20
36.000000
11
60.000000
21
36.000000
0
LINE
8
BORDES
10
80.000000
20
36.000000
11
83.000000
21
36.000000
0
LINE
8
BORDES
10
91.000000
20
36.000000
11
94.000000
21
36.000000
0
LINE
8
BORDES
10
114.000000
20
36.000000
11
117.000000
21
36.000000
0
LINE
8
BORDES
10
34.000000
20
35.000000
11
69.000000
21
35.000000
0
LINE
8
BORDES
10
71.000000
20
35.000000
11
102.000000
21
35.000000
0
LINE
8
BORDES
10
104.000000
20
35.000000
11
115.000000
21
35.000000
0
LINE
8
BORDES
10
117.000000
20
35.000000
11
124.000000
21
35.000000
0
LINE
8
BORDES
10
41.000000
20
34.000000
11
45.000000
21
34.000000
0
LINE
8
BORDES
10
48.000000
20
34.000000
11
54.000000
21
34.000000
0
LINE
8
BORDES
10
60.000000
20
34.000000
11
68.000000
21
34.000000
0
LINE
8
BORDES
10
72.000000
20
34.000000
11
80.000000
21
34.000000
0
LINE
8
BORDES
10
87.000000
20
34.000000
11
91.000000
21
34.000000
0
LINE
8
BORDES
10
94.000000
20
34.000000
11
100.000000
21
34.000000
0
LINE
8
BORDES
10
106.000000
20
34.000000
11
114.000000
21
34.000000
0
LINE
8
BORDES
10
118.000000
20
34.000000
11
125.000000
21
34.000000
0
LINE
8
BORDES
10
38.000000
20
33.000000
11
45.000000
21
33.000000
0
LINE
8
BORDES
10
48.000000
20
33.000000
11
51.000000
21
33.000000
0
LINE
8
BORDES
10
53.000000
20
33.000000
11
57.000000
21
33.000000
0
LINE
8
BORDES
10
60.000000
20
33.000000
11
66.000000
21
33.000000
0
LINE
8
BORDES
10
71.000000
20
33.000000
11
80.000000
21
33.000000
0
LINE
8
BORDES
10
84.000000
20
33.000000
11
91.000000
21
33.000000
0
LINE
8
BORDES
10
94.000000
20
33.000000
11
97.000000
21
33.000000
0
LINE
8
BORDES
10
100.000000
20
33.000000
11
103.000000
21
33.000000
0
LINE
8
BORDES
10
106.000000
20
33.000000
11
113.000000
21
33.000000
0
LINE
8
BORDES
10
117.000000
20
33.000000
11
125.000000
21
33.000000
0
LINE
8
BORDES
10
37.000000
20
32.000000
11
68.000000
21
32.000000
0
LINE
8
BORDES
10
70.000000
20
32.000000
11
81.000000
21
32.000000
0
LINE
8
BORDES
10
83.000000
20
32.000000
11
114.000000
21
32.000000
0
LINE
8
BORDES
10
116.000000
20
32.000000
11
124.000000
21
32.000000
0
LINE
8
BORDES
10
34.000000
20
31.000000
11
37.000000
21
31.000000
0
LINE
8
BORDES
10
45.000000
20
31.000000
11
48.000000
21
31.000000
0
LINE
8
BORDES
10
57.000000
20
31.000000
11
60.000000
21
31.000000
0
LINE
8
BORDES
10
65.000000
20
31.000000
11
71.000000
21
31.000000
0
LINE
8
BORDES
10
80.000000
20
31.000000
11
83.000000
21
31.000000
0
LINE
8
BORDES
10
91.000000
20
31.000000
11
94.000000
21
31.000000
0
LINE
8
BORDES
10
96.000000
20
31.000000
11
99.000000
21
31.000000
0
LINE
8
BORDES
10
103.000000
20
31.000000
11
106.000000
21
31.000000
0
LINE
8
BORDES
10
114.000000
20
31.000000
11
117.000000
21
31.000000
0
LINE
8
BORDES
10
34.000000
20
30.000000
11
37.000000
21
30.000000
0
LINE
8
BORDES
10
45.000000
20
30.000000
11
49.000000
21
30.000000
0
LINE
8
BORDES
10
57.000000
20
30.000000
11
60.000000
21
30.000000
0
LINE
8
BORDES
10
64.000000
20
30.000000
11
71.000000
21
30.000000
0
LINE
8
BORDES
10
80.000000
20
30.000000
11
83.000000
21
30.000000
0
LINE
8
BORDES
10
91.000000
20
30.000000
11
98.000000
21
30.000000
0
LINE
8
BORDES
10
103.000000
20
30.000000
11
106.000000
21
30.000000
0
LINE
8
BORDES
10
113.000000
20
30.000000
11
117.000000
21
30.000000
0
LINE
8
BORDES
10
34.000000
20
29.000000
11
37.000000
21
29.000000
0
LINE
8
BORDES
10
45.000000
20
29.000000
11
48.000000
21
29.000000
0
LINE
8
BORDES
10
57.000000
20
29.000000
11
60.000000
21
29.000000
0
LINE
8
BORDES
10
63.000000
20
29.000000
11
66.000000
21
29.000000
0
LINE
8
BORDES
10
68.000000
20
29.000000
11
71.000000
21
29.000000
0
LINE
8
BORDES
10
91.000000
20
29.000000
11
97.000000
21
29.000000
0
LINE
8
BORDES
10
103.000000
20
29.000000
11
106.000000
21
29.000000
0
LINE
8
BORDES
10
114.000000
20
29.000000
11
117.000000
21
29.000000
0
LINE
8
BORDES
10
34.000000
20
28.000000
11
37.000000
21
28.000000
0
LINE
8
BORDES
10
57.000000
20
28.000000
11
60.000000
21
28.000000
0
LINE
8
BORDES
10
62.000000
20
28.000000
11
65.000000
21
28.000000
0
LINE
8
BORDES
10
68.000000
20
28.000000
11
71.000000
21
28.000000
0
LINE
8
BORDES
10
80.000000
20
28.000000
11
83.000000
21
28.000000
0
LINE
8
BORDES
10
103.000000
20
28.000000
11
106.000000
21
28.000000
0
LINE
8
BORDES
10
114.000000
20
28.000000
11
117.000000
21
28.000000
0
LINE
8
BORDES
10
34.000000
20
27.000000
11
37.000000
21
27.000000
0
LINE
8
BORDES
10
45.000000
20
27.000000
11
48.000000
21
27.000000
0
LINE
8
BORDES
10
57.000000
20
27.000000
11
64.000000
21
27.000000
0
LINE
8
BORDES
10
68.000000
20
27.000000
11
71.000000
21
27.000000
0
LINE
8
BORDES
10
79.000000
20
27.000000
11
83.000000
21
27.000000
0
LINE
8
BORDES
10
103.000000
20
27.000000
11
106.000000
21
27.000000
0
LINE
8
BORDES
10
114.000000
20
27.000000
11
117.000000
21
27.000000
0
LINE
8
BORDES
10
34.000000
20
26.000000
11
37.000000
21
26.000000
0
LINE
8
BORDES
10
45.000000
20
26.000000
11
48.000000
21
26.000000
0
LINE
8
BORDES
10
68.000000
20
26.000000
11
71.000000
21
26.000000
0
LINE
8
BORDES
10
80.000000
20
26.000000
11
83.000000
21
26.000000
0
LINE
8
BORDES
10
91.000000
20
26.000000
11
94.000000
21
26.000000
0
LINE
8
BORDES
10
103.000000
20
26.000000
11
107.000000
21
26.000000
0
LINE
8
BORDES
10
114.000000
20
26.000000
11
117.000000
21
26.000000
0
LINE
8
BORDES
10
122.000000
20
26.000000
11
125.000000
21
26.000000
0
ENDSEC
0
EOF
